<svg width="50" height="50" viewBox="0 0 50 50" fill="none" xmlns="http://www.w3.org/2000/svg">
<mask id="mask0_30_34" style="mask-type:luminance" maskUnits="userSpaceOnUse" x="1" y="1" width="47" height="47">
<path d="M1.80212 1.80212H47.8021V47.8021H1.80212V1.80212Z" fill="white"/>
</mask>
<g mask="url(#mask0_30_34)">
<path d="M24.8021 1.80212C12.099 1.80212 1.80212 12.099 1.80212 24.8021C1.80212 37.5053 12.099 47.8021 24.8021 47.8021C37.5053 47.8021 47.8021 37.5053 47.8021 24.8021C47.8021 12.099 37.5053 1.80212 24.8021 1.80212ZM29.1927 38.3594C28.4896 38.4948 28.2396 38.0625 28.2396 37.6875C28.2396 37.2292 28.2552 35.7292 28.2552 33.8698C28.2552 32.5677 27.8125 31.7188 27.3177 31.2865C30.4063 30.9427 33.6511 29.7657 33.6511 24.4167C33.6511 22.8959 33.1146 21.6511 32.224 20.6771C32.3698 20.3282 32.8438 18.9115 32.0886 16.9948C32.0886 16.9948 30.9271 16.6198 28.2761 18.4219C27.1667 18.1146 25.9792 17.9584 24.8021 17.9532C23.625 17.9584 22.4375 18.1146 21.3282 18.4219C18.6823 16.6198 17.5157 16.9948 17.5157 16.9948C16.7605 18.9115 17.2396 20.3282 17.3802 20.6771C16.4948 21.6511 15.9532 22.8959 15.9532 24.4167C15.9532 29.75 19.1927 30.948 22.2709 31.2969C21.875 31.6459 21.5157 32.2605 21.3907 33.1615C20.599 33.5157 18.5886 34.1302 17.3542 32C17.3542 32 16.6198 30.6667 15.2292 30.5677C15.2292 30.5677 13.875 30.5469 15.1355 31.4115C15.1355 31.4115 16.0469 31.8386 16.6771 33.4532C16.6771 33.4532 17.4896 36.1615 21.349 35.3178C21.3542 36.4792 21.3646 37.3542 21.3646 37.6875C21.3646 38.0573 21.1146 38.4844 20.4167 38.3594C14.9063 36.5157 10.9323 31.2969 10.9323 25.1459C10.9323 17.4532 17.1407 11.2188 24.8021 11.2188C32.4636 11.2188 38.6719 17.4532 38.6719 25.1459C38.6719 31.2969 34.7032 36.5105 29.198 38.3594H29.1927Z" fill="#EFEEEE"/>
</g>
</svg>
