<svg width="50" height="50" viewBox="0 0 50 50" fill="none" xmlns="http://www.w3.org/2000/svg">
<mask id="mask0_30_14" style="mask-type:luminance" maskUnits="userSpaceOnUse" x="2" y="2" width="46" height="46">
<path d="M2.5 2.5H47.5V47.5H2.5V2.5Z" fill="white"/>
</mask>
<g mask="url(#mask0_30_14)">
<path d="M24.9896 6.55733C30.9948 6.55733 31.7031 6.57817 34.0833 6.68754C36.2708 6.7865 37.4635 7.15108 38.2604 7.46358C39.3073 7.86983 40.0573 8.35942 40.8438 9.15108C41.6354 9.93754 42.1146 10.6875 42.5313 11.7344C42.8385 12.5209 43.2031 13.7136 43.3073 15.9167C43.4167 18.2917 43.4375 19 43.4375 25.0052C43.4375 31.0105 43.4167 31.7188 43.3073 34.0938C43.2135 36.2865 42.8437 37.4792 42.5313 38.2761C42.125 39.323 41.6354 40.073 40.8438 40.8594C40.0573 41.6459 39.3073 42.1303 38.2604 42.5469C37.474 42.849 36.2813 43.2136 34.0833 43.323C31.7031 43.4323 30.9948 43.4532 24.9896 43.4532C18.9844 43.4532 18.276 43.4323 15.901 43.323C13.7083 43.224 12.5156 42.8594 11.7187 42.5469C10.6719 42.1407 9.92187 41.6459 9.13542 40.8594C8.34896 40.073 7.86458 39.323 7.44792 38.2761C7.14583 37.4896 6.78125 36.2969 6.67187 34.0938C6.5625 31.7188 6.54167 31.0105 6.54167 25.0052C6.54167 19 6.5625 18.2917 6.67187 15.9167C6.77083 13.724 7.13542 12.5313 7.44792 11.7344C7.85417 10.6875 8.34896 9.93754 9.13542 9.15108C9.92187 8.35942 10.6719 7.88025 11.7187 7.46358C12.5052 7.15629 13.7031 6.79171 15.901 6.68754C18.276 6.57817 18.9844 6.55733 24.9896 6.55733ZM24.9896 2.50525C18.875 2.50525 18.1198 2.5365 15.7135 2.64067C13.3177 2.75004 11.6771 3.13546 10.25 3.68754C8.77083 4.26046 7.52083 5.03129 6.26563 6.28129C5.02604 7.53129 4.25521 8.7865 3.68229 10.2657C3.13021 11.6927 2.74479 13.3334 2.64063 15.7292C2.53125 18.125 2.5 18.8907 2.5 24.9948C2.5 31.1094 2.53125 31.8698 2.64063 34.2709C2.74479 36.6667 3.13021 38.3073 3.68229 39.7344C4.25521 41.2136 5.02604 42.4688 6.27604 43.7188C7.52604 44.9688 8.78125 45.7396 10.2604 46.3125C11.6875 46.8646 13.3281 47.25 15.724 47.3594C18.1198 47.4636 18.8854 47.4948 25 47.4948C31.1146 47.4948 31.8698 47.4636 34.276 47.3594C36.6719 47.25 38.3125 46.8646 39.7396 46.3125C41.2187 45.7396 42.474 44.9688 43.724 43.7188C44.974 42.4688 45.7448 41.2136 46.3177 39.7344C46.8698 38.3073 47.2552 36.6667 47.3594 34.2709C47.4688 31.875 47.5 31.1094 47.5 24.9948C47.5 18.8802 47.4688 18.125 47.3594 15.7188C47.2552 13.323 46.8698 11.6823 46.3177 10.2552C45.7448 8.77608 44.974 7.52608 43.724 6.27087C42.474 5.02087 41.2187 4.25004 39.7396 3.67712C38.3125 3.12504 36.6719 2.73963 34.276 2.63546C31.8698 2.5365 31.1042 2.50525 24.9896 2.50525Z" fill="#EFEEEE"/>
</g>
<path d="M24.9896 13.4479C18.6094 13.4479 13.4427 18.6145 13.4427 24.9948C13.4427 31.375 18.6198 36.552 25 36.552C31.3802 36.552 36.5573 31.3854 36.5573 24.9948C36.5469 18.6145 31.3698 13.4479 24.9896 13.4479ZM24.9896 32.5C20.849 32.5 17.4948 29.1458 17.4948 25.0052C17.4948 20.8645 20.849 17.5104 24.9896 17.5104C29.1302 17.5104 32.4844 20.8645 32.4844 25.0052C32.4948 29.1354 29.1302 32.5 24.9896 32.5Z" fill="#EFEEEE"/>
<path d="M39.7031 12.9948C39.7031 14.4843 38.4896 15.6979 37 15.6979C35.5104 15.6979 34.2969 14.4843 34.2969 12.9948C34.2969 11.5052 35.5104 10.2916 37 10.2916C38.4896 10.2916 39.7031 11.4948 39.7031 12.9948Z" fill="#EFEEEE"/>
</svg>
