<svg width="50" height="50" viewBox="0 0 50 50" fill="none" xmlns="http://www.w3.org/2000/svg">
<mask id="mask0_30_22" style="mask-type:luminance" maskUnits="userSpaceOnUse" x="3" y="3" width="44" height="44">
<path d="M3 3H47V47H3V3Z" fill="white"/>
</mask>
<g mask="url(#mask0_30_22)">
<path d="M43.3229 3H6.69788C4.67184 3 3.04163 4.65104 3.04163 6.65104V43.3438C3.04163 45.3698 4.69267 47 6.69788 47H43.302C45.3281 47 46.9531 45.349 46.9531 43.3438V6.65104C46.9791 4.65104 45.3489 3 43.3229 3ZM16.052 39.2969H9.55725V19.7917H16.052V39.2969ZM12.7916 17.4375C10.7448 17.4375 9.09371 15.7865 9.09371 13.7396C9.09371 11.6927 10.7448 10.0417 12.7916 10.0417C14.8385 10.0417 16.4895 11.6927 16.4895 13.7396C16.4895 15.7865 14.8385 17.4375 12.7916 17.4375ZM40.4843 39.2969H33.9687L33.8125 27.7188C33.8125 27.7188 33.9687 24.6354 30.5989 24.6563C27.2343 24.6823 26.7708 27.7188 26.7708 27.7188V39.2969H20.2135V19.7917H26.5052V22.4792C26.5052 22.4792 26.7708 21.599 28.2239 20.5625C29.677 19.5313 32.0729 19.3073 33.1093 19.3542C34.1458 19.3958 35.552 19.2188 37.9062 20.849C40.4375 22.5885 40.5052 27.1458 40.5052 27.1458L40.4843 39.2969Z" fill="#EFEEEE"/>
</g>
</svg>
