<svg width="50" height="50" viewBox="0 0 50 50" fill="none" xmlns="http://www.w3.org/2000/svg">
<mask id="mask0_30_28" style="mask-type:luminance" maskUnits="userSpaceOnUse" x="0" y="5" width="50" height="41">
<path d="M0.546875 5.33337H49.3438V45.6407H0.546875V5.33337Z" fill="white"/>
</mask>
<g mask="url(#mask0_30_28)">
<path d="M44.4896 15.6563C44.5209 16.0886 44.5209 16.5209 44.5209 16.9584C44.5209 30.2761 34.4271 45.6355 15.974 45.6355V45.6251C10.5261 45.6355 5.18754 44.0678 0.598999 41.1095C1.39067 41.2032 2.18754 41.2553 2.98962 41.2553C7.50525 41.2605 11.8907 39.7345 15.448 36.9324C11.1511 36.849 7.39067 34.0365 6.07296 29.9324C7.57817 30.224 9.12504 30.1668 10.6042 29.7605C5.92192 28.8074 2.55733 24.6772 2.55733 19.8803C2.55733 19.8334 2.55733 19.7918 2.55733 19.7501C3.94796 20.5313 5.51046 20.9636 7.10941 21.0157C2.70317 18.0574 1.34379 12.1668 4.00525 7.55738C9.099 13.8543 16.6146 17.6824 24.6771 18.0886C23.8698 14.5886 24.974 10.9168 27.5834 8.45842C31.625 4.64071 37.9792 4.83863 41.7761 8.89592C44.0209 8.448 46.1771 7.61988 48.1459 6.448C47.3959 8.78134 45.8282 10.7657 43.7344 12.0209C45.724 11.7865 47.6667 11.2501 49.5 10.4324C48.1511 12.4636 46.4532 14.2293 44.4896 15.6563Z" fill="#EFEEEE"/>
</g>
</svg>
